<?xml version="1.0" standalone="no"?>
<!DOCTYPE svg PUBLIC "-//W3C//DTD SVG 20010904//EN"
 "http://www.w3.org/TR/2001/REC-SVG-20010904/DTD/svg10.dtd">
<svg version="1.0" xmlns="http://www.w3.org/2000/svg"
 width="1600.000000pt" height="709.000000pt" viewBox="0 0 1600.000000 709.000000"
 preserveAspectRatio="xMidYMid meet">

<g transform="translate(0.000000,709.000000) scale(0.100000,-0.100000)"
fill="#000000" stroke="none">
<path d="M362 7080 c-158 -23 -306 -164 -343 -327 -10 -46 -4 -1805 20 -5458
7 -1083 7 -1101 28 -1145 25 -56 66 -97 118 -121 36 -17 71 -19 342 -19 l303
0 2 3102 3 3103 1345 0 c1221 0 1359 -2 1500 -18 510 -58 896 -180 1268 -402
591 -351 1034 -990 1177 -1699 64 -317 68 -657 10 -981 -94 -530 -377 -1084
-741 -1451 -390 -392 -953 -663 -1569 -754 -169 -25 -510 -38 -1083 -41 l-402
-2 -47 29 c-32 20 -55 44 -71 77 l-25 47 12 988 c6 543 13 1275 16 1627 3 352
8 763 11 913 l6 272 703 0 c589 0 717 -2 791 -15 440 -77 826 -402 979 -825
46 -127 65 -235 71 -390 7 -173 -9 -292 -61 -447 -67 -200 -154 -344 -295
-483 -186 -185 -422 -309 -692 -361 -87 -17 -147 -19 -518 -19 l-420 0 0 -313
c0 -252 3 -323 15 -365 43 -145 152 -177 600 -177 276 0 353 8 570 60 393 93
795 312 1052 572 379 383 592 840 634 1358 24 308 -21 588 -148 905 -126 316
-285 565 -497 775 -298 296 -660 482 -1105 568 -115 22 -121 22 -1176 22
l-1060 0 -67 -32 c-111 -52 -183 -139 -214 -258 -11 -41 -14 -501 -14 -2577 0
-1774 3 -2542 11 -2577 19 -92 37 -97 339 -106 102 -3 217 -8 255 -10 230 -14
1021 -27 1366 -22 393 5 579 16 869 53 326 40 580 122 923 296 622 317 1118
825 1437 1473 54 110 121 261 149 335 347 938 295 1979 -145 2875 -337 687
-832 1205 -1484 1552 -387 207 -885 355 -1320 393 -136 12 -3346 12 -3428 0z"/>
<path d="M9832 5470 c-166 -23 -301 -88 -418 -205 -91 -90 -143 -174 -182
-293 -34 -106 -42 -304 -17 -418 35 -161 115 -280 248 -368 112 -74 235 -120
482 -181 269 -67 336 -100 376 -190 53 -115 -3 -241 -133 -301 -60 -28 -70
-29 -198 -29 -116 1 -143 4 -192 23 -111 45 -186 123 -230 244 -11 32 -23 58
-25 58 -16 0 -449 -113 -455 -118 -11 -11 56 -196 93 -257 155 -256 429 -395
779 -395 345 0 608 120 759 345 98 147 137 294 128 484 -8 187 -61 305 -197
442 -72 73 -100 93 -180 132 -103 50 -260 98 -463 142 -217 48 -304 109 -315
223 -9 96 38 172 130 213 45 20 69 23 168 23 105 1 120 -2 175 -27 33 -16 71
-38 84 -50 35 -32 99 -133 106 -168 4 -17 12 -29 18 -26 322 115 417 151 417
161 0 27 -71 170 -113 229 -149 208 -382 313 -697 315 -47 0 -113 -4 -148 -8z"/>
<path d="M12835 5471 c-96 -16 -175 -41 -252 -80 -94 -48 -129 -73 -212 -154
-154 -151 -261 -378 -313 -666 -17 -92 -21 -158 -22 -321 -1 -282 28 -457 112
-662 67 -164 162 -295 277 -383 233 -179 573 -217 825 -94 69 34 102 59 178
135 51 51 95 87 97 81 2 -7 15 -57 30 -112 41 -158 26 -145 155 -145 l110 0 0
635 0 635 -445 0 -445 0 0 -220 0 -220 206 0 207 0 -5 -73 c-6 -97 -45 -182
-110 -243 -76 -71 -124 -89 -243 -89 -89 0 -106 3 -156 28 -180 88 -279 344
-279 722 0 238 32 418 99 559 50 106 96 158 176 197 108 53 235 41 341 -32 79
-54 153 -194 170 -321 5 -36 11 -48 23 -48 20 0 406 57 439 65 26 6 27 13 7
102 -76 358 -292 604 -600 684 -89 23 -286 33 -370 20z"/>
<path d="M7460 4258 l0 -1168 770 0 770 0 0 225 0 225 -520 0 -520 0 0 260 0
260 410 0 410 0 0 220 0 220 -410 0 -410 0 0 240 0 240 520 0 520 0 0 226 0
227 -770 -4 -770 -4 0 -1167z"/>
<path d="M11200 4260 l0 -1170 250 0 250 0 0 1170 0 1170 -250 0 -250 0 0
-1170z"/>
<path d="M14210 4260 l0 -1170 195 0 195 0 0 785 c0 432 3 785 8 785 4 0 195
-353 426 -785 l418 -785 219 0 219 0 0 1170 0 1170 -195 0 -195 0 0 -685 c0
-377 -3 -685 -7 -685 -5 0 -110 193 -235 428 -124 235 -288 543 -363 685
l-137 257 -274 0 -274 0 0 -1170z"/>
<path d="M15415 2810 c-22 -3 -50 -11 -61 -18 -12 -6 -24 -9 -27 -6 -10 10
-89 -37 -138 -83 -72 -69 -109 -150 -116 -256 -6 -104 10 -167 67 -254 46 -72
110 -124 184 -152 29 -11 113 -25 197 -34 170 -18 214 -35 256 -99 24 -36 28
-52 28 -113 0 -59 -4 -77 -24 -107 -52 -75 -135 -110 -266 -111 -106 -1 -204
26 -277 76 -16 10 -28 16 -28 13 0 -3 -12 6 -26 19 -15 14 -32 25 -39 25 -6 0
-35 -35 -65 -77 l-53 -76 34 -29 c43 -37 178 -102 244 -118 220 -54 451 -14
564 98 106 106 139 226 108 399 -9 51 -63 145 -104 184 -84 79 -148 101 -356
124 -161 18 -206 40 -243 118 -76 163 46 307 248 294 40 -2 80 -7 88 -9 8 -3
38 -14 65 -24 28 -9 71 -30 97 -46 26 -16 51 -27 55 -25 5 3 19 27 33 54 14
26 28 50 31 53 9 8 29 47 29 58 0 15 -158 89 -227 107 -68 17 -214 25 -278 15z"/>
<path d="M11810 2101 l0 -708 90 -2 90 -2 0 280 0 281 171 0 c211 0 281 14
369 73 35 23 68 51 74 61 6 11 19 28 29 38 9 10 17 25 17 33 0 8 4 15 8 15 16
0 44 104 49 182 15 221 -117 403 -325 447 -31 6 -160 11 -312 11 l-260 0 0
-709z m595 491 c60 -32 71 -44 99 -97 34 -62 36 -155 6 -218 -55 -113 -116
-137 -355 -137 l-165 0 0 233 c0 129 3 237 8 241 4 4 88 6 187 4 163 -3 184
-6 220 -26z"/>
<path d="M13181 2626 c-35 -102 -64 -191 -65 -198 -1 -7 -7 -22 -13 -33 -8
-16 -22 -60 -27 -85 -1 -3 -4 -9 -8 -15 -6 -10 -30 -95 -30 -105 0 -3 -3 -9
-8 -15 -7 -10 -74 -202 -76 -220 0 -5 -4 -17 -7 -25 -11 -26 -37 -99 -107
-305 -37 -110 -71 -207 -75 -216 -6 -15 5 -17 95 -18 103 -2 106 -1 114 41 2
7 6 20 9 28 10 27 32 95 33 105 1 6 3 13 4 18 1 4 3 10 5 15 1 4 7 20 13 35 7
15 15 39 18 52 l6 25 258 0 257 0 49 -160 49 -160 104 0 c91 0 102 2 91 15 -7
8 -10 15 -7 15 7 0 -191 591 -204 606 -5 6 -6 14 -2 17 3 4 -2 10 -11 13 -12
4 -14 9 -7 14 8 5 8 16 -2 41 -8 19 -18 43 -22 54 -4 11 -9 27 -11 37 -4 17
-99 301 -111 328 -3 8 -7 20 -9 27 -6 31 -28 89 -37 101 -5 6 -7 12 -4 12 3 0
-5 30 -17 68 l-23 67 -80 3 -80 3 -62 -185z m172 -198 c14 -46 44 -144 68
-218 23 -74 46 -141 52 -147 5 -7 7 -13 4 -13 -3 0 3 -28 14 -62 32 -106 47
-98 -176 -98 -107 0 -195 2 -195 5 0 2 20 68 45 145 25 77 45 146 45 154 0 7
7 27 16 44 8 18 17 42 18 54 2 13 8 35 14 50 6 15 21 59 33 97 11 39 24 71 29
71 4 0 19 -37 33 -82z"/>
<path d="M14070 2100 l0 -710 419 0 418 1 2 94 2 95 -308 2 c-169 1 -317 2
-328 2 -20 1 -20 9 -23 614 l-2 612 -90 0 -90 0 0 -710z"/>
</g>
</svg>
